<svg width="21" height="21" viewBox="0 0 21 21" fill="none" xmlns="http://www.w3.org/2000/svg">
<g clip-path="url(#clip0_46_2050)">
<path d="M18.4555 1.68996C16.5864 1.14929 14.6331 2.22608 14.0925 4.09512L13.7341 5.33425C13.3596 4.86003 12.6867 4.71196 12.1402 5.01318C11.5318 5.34865 11.3104 6.11396 11.6458 6.72243L12.752 8.72912L12.4366 9.81948L19.2046 11.7772L20.8605 6.05293C21.4012 4.18392 20.3245 2.23059 18.4555 1.68996Z" fill="#21212B"/>
<path d="M12.0169 11.2707L11.2954 13.7646L18.0633 15.7226L18.7848 13.2286L12.0169 11.2707Z" fill="#21212B"/>
<path d="M8.86 8.74168C8.31351 8.44046 7.64064 8.58853 7.26617 9.06275L6.90769 7.82363C6.36711 5.95458 4.41369 4.87784 2.54477 5.41846C0.675848 5.95909 -0.400978 7.91247 0.13965 9.78139L1.79558 15.5057L8.56362 13.5479L8.24821 12.4576L9.35436 10.4509C9.68987 9.84246 9.46847 9.07715 8.86 8.74168Z" fill="#21212B"/>
<path d="M8.98228 14.9976L2.21436 16.9556L2.93588 19.4496L9.7038 17.4917L8.98228 14.9976Z" fill="#21212B"/>
</g>
<defs>
<clipPath id="clip0_46_2050">
<rect width="21" height="21" fill="white"/>
</clipPath>
</defs>
</svg>
