<svg width="14" height="14" viewBox="0 0 14 14" fill="none" xmlns="http://www.w3.org/2000/svg">
<path d="M9.1875 2.21922V1.75C9.1875 1.4019 9.04922 1.06806 8.80308 0.821922C8.55694 0.575781 8.2231 0.4375 7.875 0.4375H6.125C5.7769 0.4375 5.44306 0.575781 5.19692 0.821922C4.95078 1.06806 4.8125 1.4019 4.8125 1.75V2.21922C4.08411 2.32539 3.41818 2.68994 2.93627 3.24635C2.45435 3.80276 2.1886 4.51391 2.1875 5.25V11.8125C2.1875 12.0446 2.27969 12.2671 2.44378 12.4312C2.60788 12.5953 2.83044 12.6875 3.0625 12.6875H10.9375C11.1696 12.6875 11.3921 12.5953 11.5562 12.4312C11.7203 12.2671 11.8125 12.0446 11.8125 11.8125V5.25C11.8114 4.51391 11.5456 3.80276 11.0637 3.24635C10.5818 2.68994 9.91589 2.32539 9.1875 2.21922ZM5.6875 1.75C5.6875 1.63397 5.73359 1.52269 5.81564 1.44064C5.89769 1.35859 6.00897 1.3125 6.125 1.3125H7.875C7.99103 1.3125 8.10231 1.35859 8.18436 1.44064C8.26641 1.52269 8.3125 1.63397 8.3125 1.75V2.1875H5.6875V1.75ZM6.125 3.9375H7.875C7.99103 3.9375 8.10231 3.98359 8.18436 4.06564C8.26641 4.14769 8.3125 4.25897 8.3125 4.375C8.3125 4.49103 8.26641 4.60231 8.18436 4.68436C8.10231 4.76641 7.99103 4.8125 7.875 4.8125H6.125C6.00897 4.8125 5.89769 4.76641 5.81564 4.68436C5.73359 4.60231 5.6875 4.49103 5.6875 4.375C5.6875 4.25897 5.73359 4.14769 5.81564 4.06564C5.89769 3.98359 6.00897 3.9375 6.125 3.9375ZM9.625 11.8125H4.375V9.625H7.4375V10.0625C7.4375 10.1785 7.48359 10.2898 7.56564 10.3719C7.64769 10.4539 7.75897 10.5 7.875 10.5C7.99103 10.5 8.10231 10.4539 8.18436 10.3719C8.26641 10.2898 8.3125 10.1785 8.3125 10.0625V9.625H9.625V11.8125ZM9.625 8.75H4.375V8.3125C4.375 8.08044 4.46719 7.85788 4.63128 7.69378C4.79538 7.52969 5.01794 7.4375 5.25 7.4375H8.75C8.98206 7.4375 9.20462 7.52969 9.36872 7.69378C9.53281 7.85788 9.625 8.08044 9.625 8.3125V8.75Z" fill="white"/>
</svg>
