<svg width="21" height="21" viewBox="0 0 21 21" fill="none" xmlns="http://www.w3.org/2000/svg">
<path d="M13.7812 3.32883V2.625C13.7812 2.10286 13.5738 1.6021 13.2046 1.23288C12.8354 0.863671 12.3346 0.65625 11.8125 0.65625H9.1875C8.66536 0.65625 8.1646 0.863671 7.79538 1.23288C7.42617 1.6021 7.21875 2.10286 7.21875 2.625V3.32883C6.12616 3.48808 5.12727 4.03492 4.4044 4.86953C3.68153 5.70414 3.28289 6.77087 3.28125 7.875V17.7188C3.28125 18.0668 3.41953 18.4007 3.66567 18.6468C3.91181 18.893 4.24565 19.0312 4.59375 19.0312H16.4062C16.7543 19.0312 17.0882 18.893 17.3343 18.6468C17.5805 18.4007 17.7188 18.0668 17.7188 17.7188V7.875C17.7171 6.77087 17.3185 5.70414 16.5956 4.86953C15.8727 4.03492 14.8738 3.48808 13.7812 3.32883ZM8.53125 2.625C8.53125 2.45095 8.60039 2.28403 8.72346 2.16096C8.84653 2.03789 9.01345 1.96875 9.1875 1.96875H11.8125C11.9865 1.96875 12.1535 2.03789 12.2765 2.16096C12.3996 2.28403 12.4688 2.45095 12.4688 2.625V3.28125H8.53125V2.625ZM9.1875 5.90625H11.8125C11.9865 5.90625 12.1535 5.97539 12.2765 6.09846C12.3996 6.22153 12.4688 6.38845 12.4688 6.5625C12.4688 6.73655 12.3996 6.90347 12.2765 7.02654C12.1535 7.14961 11.9865 7.21875 11.8125 7.21875H9.1875C9.01345 7.21875 8.84653 7.14961 8.72346 7.02654C8.60039 6.90347 8.53125 6.73655 8.53125 6.5625C8.53125 6.38845 8.60039 6.22153 8.72346 6.09846C8.84653 5.97539 9.01345 5.90625 9.1875 5.90625ZM14.4375 17.7188H6.5625V14.4375H11.1562V15.0938C11.1562 15.2678 11.2254 15.4347 11.3485 15.5578C11.4715 15.6809 11.6385 15.75 11.8125 15.75C11.9865 15.75 12.1535 15.6809 12.2765 15.5578C12.3996 15.4347 12.4688 15.2678 12.4688 15.0938V14.4375H14.4375V17.7188ZM14.4375 13.125H6.5625V12.4688C6.5625 12.1207 6.70078 11.7868 6.94692 11.5407C7.19306 11.2945 7.5269 11.1562 7.875 11.1562H13.125C13.4731 11.1562 13.8069 11.2945 14.0531 11.5407C14.2992 11.7868 14.4375 12.1207 14.4375 12.4688V13.125Z" fill="#21212B"/>
</svg>
