<svg width="21" height="21" viewBox="0 0 21 21" fill="none" xmlns="http://www.w3.org/2000/svg">
<path d="M10.8499 13.4966H18.8999V15.2466H10.8499V13.4966Z" fill="#21212B"/>
<path d="M2.09992 13.4966H10.1499V15.2466H2.09992V13.4966Z" fill="#21212B"/>
<path d="M2.09993 15.8828H18.8999V17.9828H2.09993V15.8828Z" fill="#21212B"/>
<path d="M10.8495 7.99398C10.9065 7.98523 10.9636 7.97509 11.0196 7.96213C11.0504 7.95479 11.0812 7.94636 11.1116 7.93798C11.1655 7.92293 11.2191 7.90612 11.2719 7.88757C11.3013 7.87706 11.3307 7.86655 11.3598 7.855C11.4165 7.83261 11.4725 7.80705 11.5278 7.78044C11.5505 7.76923 11.574 7.75943 11.5967 7.74754C11.6741 7.70764 11.75 7.66423 11.8246 7.61627C11.8344 7.60998 11.8435 7.60297 11.8529 7.59667C11.918 7.55397 11.9821 7.50881 12.0448 7.46053C12.0689 7.44235 12.0923 7.42237 12.1161 7.40348C12.1641 7.36462 12.2117 7.32475 12.2586 7.2831C12.2842 7.26033 12.3093 7.23689 12.3345 7.21346C12.3797 7.17109 12.4241 7.12735 12.4679 7.08256C12.4913 7.05842 12.5151 7.03461 12.5382 7.00976C12.5872 6.95759 12.6352 6.90334 12.6824 6.84771C12.6989 6.82883 12.7157 6.8106 12.7318 6.79138C12.7948 6.71578 12.8567 6.63738 12.9173 6.55653C12.9288 6.54114 12.94 6.52467 12.9519 6.50858C13.0002 6.44277 13.0482 6.37556 13.0951 6.30663C13.1143 6.27794 13.1332 6.24854 13.1525 6.21948C13.191 6.16139 13.2291 6.10222 13.2663 6.04205C13.2862 6.01019 13.3058 5.978 13.325 5.9458C13.3622 5.88421 13.3982 5.82225 13.4339 5.75924C13.451 5.7288 13.4685 5.69869 13.4853 5.66788C13.5273 5.59228 13.5679 5.51563 13.6082 5.43795C13.6173 5.4201 13.6271 5.40225 13.6365 5.38403C13.6859 5.28708 13.7338 5.18909 13.7807 5.09001C13.7916 5.06691 13.8018 5.04347 13.8126 5.02037C13.848 4.94444 13.8826 4.86813 13.9162 4.79111C13.9312 4.7575 13.9456 4.72356 13.9599 4.68962C13.989 4.62173 14.0177 4.55313 14.0457 4.4845C14.06 4.44951 14.0743 4.41448 14.0884 4.37917C14.1164 4.30849 14.1436 4.23743 14.1706 4.16637C14.1825 4.13522 14.1947 4.10408 14.2063 4.07259C14.2399 3.98265 14.2721 3.89233 14.3036 3.80238C14.3074 3.79116 14.3116 3.77961 14.3158 3.76844C14.3515 3.66553 14.3855 3.56265 14.4187 3.46045C14.4265 3.4363 14.4338 3.41249 14.4415 3.38835C14.466 3.31133 14.4898 3.23436 14.5129 3.15805C14.5227 3.12585 14.5318 3.094 14.5412 3.06214C14.5619 2.9925 14.5819 2.92353 14.6011 2.8546C14.6098 2.82312 14.6186 2.79197 14.627 2.76082C14.6466 2.68872 14.6658 2.61733 14.684 2.54661C14.6907 2.52142 14.6973 2.49586 14.7036 2.47101C14.7523 2.27957 14.7957 2.09405 14.8338 1.91624C14.8387 1.89314 14.8433 1.87075 14.8482 1.84798C14.8618 1.78289 14.8748 1.71847 14.887 1.65583C14.8923 1.62923 14.8975 1.60262 14.9024 1.5764C14.908 1.54733 14.9125 1.51935 14.9178 1.49066C13.8226 2.54803 12.2473 3.15421 10.4994 3.15421C8.75148 3.15421 7.17613 2.54803 6.08099 1.49066C6.08624 1.51935 6.09079 1.54737 6.09637 1.5764C6.10125 1.60267 6.1065 1.62923 6.11176 1.65583C6.12402 1.71847 6.13695 1.78289 6.15062 1.84798C6.15554 1.87075 6.16009 1.89314 6.16497 1.91624C6.20312 2.09405 6.24653 2.27953 6.29515 2.47101C6.30145 2.49586 6.30812 2.52142 6.31475 2.54661C6.33293 2.61729 6.3522 2.68872 6.37179 2.76082C6.38018 2.79197 6.38893 2.82312 6.39769 2.8546C6.41695 2.92357 6.43689 2.9925 6.45753 3.06214C6.46699 3.094 6.47609 3.12585 6.48588 3.15805C6.50899 3.23436 6.53279 3.31133 6.55727 3.38835C6.56499 3.41249 6.57233 3.4363 6.58004 3.46045C6.61328 3.56265 6.64726 3.66557 6.68295 3.76844C6.68717 3.77966 6.69134 3.79121 6.69521 3.80238C6.7267 3.89233 6.75893 3.98265 6.7925 4.07259C6.80405 4.10408 6.81631 4.13522 6.82819 4.16637C6.85513 4.23743 6.88244 4.30849 6.91042 4.37917C6.92443 4.41453 6.93878 4.44951 6.95312 4.4845C6.9811 4.55309 7.00983 4.62169 7.03886 4.68962C7.0532 4.72356 7.06755 4.7575 7.0826 4.79111C7.11621 4.86813 7.15086 4.9444 7.18618 5.02037C7.19702 5.04347 7.2072 5.06691 7.21804 5.09001C7.26495 5.18905 7.3129 5.28708 7.36223 5.38403C7.3717 5.40221 7.3815 5.4201 7.39059 5.43795C7.43083 5.51563 7.47145 5.59228 7.51344 5.66788C7.53024 5.69869 7.54775 5.72876 7.56489 5.75924C7.60059 5.82225 7.63666 5.88417 7.67373 5.9458C7.69299 5.978 7.71259 6.01019 7.73252 6.04205C7.76964 6.10226 7.80779 6.16139 7.84628 6.21948C7.86554 6.24854 7.88443 6.27794 7.9037 6.30663C7.95061 6.3756 7.99856 6.44277 8.04685 6.50858C8.05874 6.52467 8.06995 6.54114 8.0815 6.55653C8.14205 6.63738 8.20401 6.71578 8.26698 6.79138C8.28308 6.81064 8.29988 6.82883 8.31631 6.84771C8.36356 6.90338 8.41151 6.95759 8.46051 7.00976C8.48361 7.03461 8.50742 7.05842 8.53085 7.08256C8.5746 7.12735 8.61905 7.17113 8.66421 7.21346C8.68939 7.23689 8.71462 7.26037 8.74014 7.2831C8.78705 7.32475 8.83463 7.36466 8.88259 7.40348C8.9064 7.42237 8.92983 7.44235 8.95397 7.46053C9.01661 7.50881 9.08066 7.55397 9.14579 7.59667C9.15526 7.60297 9.16435 7.60998 9.17415 7.61627C9.2487 7.66423 9.32464 7.70764 9.40199 7.74754C9.42476 7.75943 9.44819 7.76923 9.47096 7.78044C9.52625 7.80705 9.58226 7.83261 9.63897 7.855C9.66803 7.86655 9.69743 7.87706 9.72683 7.88757C9.77966 7.90612 9.83324 7.92293 9.88712 7.93798C9.91756 7.94636 9.94837 7.95479 9.97915 7.96213C10.0352 7.97509 10.0922 7.98523 10.1492 7.99398V10.1241H2.10055C2.1058 9.73451 2.23532 9.17486 2.40016 8.8336C3.21425 7.15466 3.85054 3.73199 3.84949 1.04227C3.84949 0.764013 3.958 0.502225 4.15573 0.305155C4.3528 0.108501 4.61459 0 4.89252 0H5.59953C5.60199 0 5.60407 0.00141777 5.60686 0.00141777C5.64923 0.00246025 5.69051 0.0105082 5.72938 0.0262705C5.74059 0.0308157 5.74931 0.0381548 5.75948 0.0437841C5.78609 0.0574198 5.81094 0.0731821 5.83333 0.0934896C5.84522 0.103998 5.85398 0.115882 5.86415 0.127808C5.87428 0.140068 5.88692 0.149867 5.89563 0.163503C6.79967 1.59816 8.52064 2.45425 10.4995 2.45425C12.4784 2.45425 14.1994 1.59808 15.1034 0.163461C15.1122 0.14945 15.1247 0.140026 15.1349 0.127766C15.145 0.115882 15.1538 0.103956 15.1653 0.0934479C15.1877 0.0731404 15.2129 0.0573781 15.2395 0.0434089C15.25 0.0381548 15.2588 0.0308157 15.2696 0.0262705C15.3085 0.0108835 15.3494 0.00283554 15.3917 0.00175137C15.3945 0.00175137 15.3966 0 15.3995 0H16.1065C16.3844 0 16.6462 0.108501 16.8432 0.305196C17.0409 0.502225 17.1494 0.764054 17.1494 1.04231C17.1484 3.73204 17.7847 7.15471 18.5988 8.83397C18.7637 9.17486 18.8932 9.73451 18.8984 10.1241H10.8495V7.99398Z" fill="#21212B"/>
<path d="M10.1499 20.745H3.1499C2.57099 20.745 2.09992 20.2743 2.09992 19.695V18.6191H10.1499V20.745Z" fill="#21212B"/>
<path d="M2.09993 10.7603H18.8999V12.8603H2.09993V10.7603Z" fill="#21212B"/>
<path d="M18.8999 19.6951C18.8999 20.2743 18.4288 20.745 17.8499 20.745H10.8499V18.6191H18.8999V19.6951Z" fill="#21212B"/>
</svg>
