<?xml version="1.0" encoding="iso-8859-1"?>
<!-- Uploaded to: SVG Repo, www.svgrepo.com, Generator: SVG Repo Mixer Tools -->
<!DOCTYPE svg PUBLIC "-//W3C//DTD SVG 1.1//EN" "http://www.w3.org/Graphics/SVG/1.1/DTD/svg11.dtd">
<svg fill="#21212B" height="26px" width="26px" version="1.1" id="Capa_1" xmlns="http://www.w3.org/2000/svg" xmlns:xlink="http://www.w3.org/1999/xlink" 
	 viewBox="0 0 226.071 226.071" xml:space="preserve">
<path d="M152.179,123.388c10.575-21.145,16.889-45.83,16.889-66.035C169.067,21.44,148.121,0,113.036,0
	C77.95,0,57.004,21.44,57.004,57.353c0,20.204,6.313,44.891,16.89,66.035c5.601,11.198,16.092,28.581,29.567,34.612v6.372
	c-1.437-0.236-2.911-0.37-4.42-0.37c-14.301,0-22.018,12.288-22.018,23.85c0,9.434,5.143,17.3,15.283,23.38
	c6.982,4.187,11.41,8.932,13.431,11.391c1.803,2.192,4.463,3.449,7.299,3.449c2.837,0,5.498-1.258,7.299-3.45
	c2.02-2.457,6.45-7.205,13.43-11.39c10.142-6.08,15.284-13.946,15.284-23.38c0-11.562-7.717-23.85-22.019-23.85
	c-1.509,0-2.983,0.134-4.419,0.37V158C136.087,151.968,146.578,134.586,152.179,123.388z M87.31,116.678
	C77.868,97.803,72.004,75.07,72.004,57.353C72.004,22.348,94.317,15,113.036,15s41.031,7.348,41.031,42.353
	c0,17.719-5.864,40.45-15.305,59.325c-6.624,13.244-13.398,21.555-18.863,25.576c-1.299-1.079-2.968-1.729-4.789-1.729h-4.15
	c-1.821,0-3.49,0.649-4.789,1.729C100.707,138.233,93.933,129.922,87.31,116.678z"/>
</svg>