<svg width="25" height="25" viewBox="0 0 25 25" fill="none" xmlns="http://www.w3.org/2000/svg">
<path d="M21.875 5.46875C21.875 5.67595 21.7927 5.87466 21.6462 6.02118C21.4997 6.16769 21.301 6.25 21.0938 6.25H20.3125V20.3125C20.3125 20.7269 20.1479 21.1243 19.8549 21.4174C19.5618 21.7104 19.1644 21.875 18.75 21.875H6.25C5.8356 21.875 5.43817 21.7104 5.14515 21.4174C4.85212 21.1243 4.6875 20.7269 4.6875 20.3125V6.25H3.90625C3.69905 6.25 3.50034 6.16769 3.35382 6.02118C3.20731 5.87466 3.125 5.67595 3.125 5.46875C3.125 5.26155 3.20731 5.06284 3.35382 4.91632C3.50034 4.76981 3.69905 4.6875 3.90625 4.6875H21.0938C21.301 4.6875 21.4997 4.76981 21.6462 4.91632C21.7927 5.06284 21.875 5.26155 21.875 5.46875ZM8.59375 3.125H16.4062C16.6135 3.125 16.8122 3.04269 16.9587 2.89618C17.1052 2.74966 17.1875 2.55095 17.1875 2.34375C17.1875 2.13655 17.1052 1.93784 16.9587 1.79132C16.8122 1.64481 16.6135 1.5625 16.4062 1.5625H8.59375C8.38655 1.5625 8.18784 1.64481 8.04132 1.79132C7.89481 1.93784 7.8125 2.13655 7.8125 2.34375C7.8125 2.55095 7.89481 2.74966 8.04132 2.89618C8.18784 3.04269 8.38655 3.125 8.59375 3.125Z" fill="white" fill-opacity="0.25"/>
</svg>
