<svg width="21" height="21" viewBox="0 0 21 21" fill="none" xmlns="http://www.w3.org/2000/svg">
<path d="M19.8526 11.3085C19.4465 9.89363 18.35 9.0447 17.4159 8.72127C16.7255 8.47872 15.9133 8.51915 15.1417 8.88298V3.3447C15.1417 2.90003 14.7762 2.5362 14.3294 2.5362C13.8827 2.5362 13.5172 2.90003 13.5172 3.3447V8.88298C12.9487 8.59999 12.3801 8.51915 11.8521 8.55959C11.3242 7.62982 10.512 7.02343 9.74031 6.78088C9.04993 6.53833 8.23766 6.57876 7.46607 6.94259V1.8085C7.46603 1.36383 7.10052 1 6.65376 1C6.20701 1 5.84154 1.36383 5.84154 1.8085V6.94256C5.0699 6.57873 4.2983 6.49789 3.56729 6.74044C2.67382 7.06383 1.53667 7.91277 1.13058 9.32765C0.88691 10.2574 0.846286 11.7532 2.26773 13.5319C4.50139 16.3213 5.55728 17.4128 6.08525 17.817C6.20709 17.9383 6.69443 18.2213 7.14115 17.8979C7.54728 17.6149 8.27829 16.9276 9.69969 15.2298C9.7809 15.3106 9.82153 15.4319 9.90274 15.5128C12.0958 18.2617 13.1517 19.3532 13.7203 19.7574C13.8421 19.8787 14.0046 20 14.167 20C14.2076 20 14.4106 20 14.4513 20C14.6137 19.9596 14.7356 19.8787 14.8574 19.7979C15.3854 19.3936 16.4413 18.3426 18.6749 15.5532C20.1369 13.7341 20.1369 12.2383 19.8526 11.3085ZM9.82153 12.5213C8.84684 13.8149 7.38482 15.4724 6.69443 16.2404C5.96342 15.5128 4.54201 13.8149 3.5267 12.5617C2.71448 11.551 2.43019 10.5808 2.67386 9.77232C2.91753 9.00422 3.56733 8.47871 4.13588 8.27656C4.62322 8.07445 5.31361 8.3574 5.96341 8.96378C6.00404 9.00422 6.04463 9.04462 6.08525 9.08506C6.41013 9.40845 6.85689 9.40845 7.14115 9.1255C7.14115 9.1255 7.14115 9.1255 7.18177 9.08506C7.18177 9.08506 7.22239 9.08506 7.22239 9.04462C7.91278 8.3574 8.68442 8.03397 9.21239 8.23612C9.78094 8.39784 10.4307 8.96378 10.6744 9.73188C10.918 10.5809 10.6337 11.5106 9.82153 12.5213Z" fill="#21212B"/>
</svg>
