<svg width="21" height="21" viewBox="0 0 21 21" fill="none" xmlns="http://www.w3.org/2000/svg">
<path d="M16.8883 2.4707C16.7001 2.4707 16.5195 2.54817 16.3864 2.68607C16.2533 2.82396 16.1785 3.01099 16.1785 3.206C16.1785 3.40101 16.2533 3.58803 16.3864 3.72593C16.5195 3.86382 16.7001 3.94129 16.8883 3.94129C17.2648 3.94129 17.6259 4.09623 17.8921 4.37202C18.1584 4.64781 18.3079 5.02186 18.3079 5.41188V10.5589H2.69253V5.41188C2.69253 5.02186 2.84209 4.64781 3.10832 4.37202C3.37454 4.09623 3.73561 3.94129 4.11211 3.94129C4.30036 3.94129 4.4809 3.86382 4.61401 3.72593C4.74712 3.58803 4.8219 3.40101 4.8219 3.206C4.8219 3.01099 4.74712 2.82396 4.61401 2.68607C4.4809 2.54817 4.30036 2.4707 4.11211 2.4707C3.35912 2.4707 2.63697 2.78058 2.10452 3.33215C1.57207 3.88373 1.27295 4.63183 1.27295 5.41188V13.8678C1.27295 14.9403 1.68425 15.969 2.41636 16.7274C3.14847 17.4858 4.14143 17.9119 5.1768 17.9119C6.21216 17.9119 7.20512 17.4858 7.93723 16.7274C8.66934 15.969 9.08064 14.9403 9.08064 13.8678V12.0295H11.9198V13.8678C11.9198 14.9403 12.3311 15.969 13.0632 16.7274C13.7953 17.4858 14.7883 17.9119 15.8236 17.9119C16.859 17.9119 17.852 17.4858 18.5841 16.7274C19.3162 15.969 19.7275 14.9403 19.7275 13.8678V5.41188C19.7275 4.63183 19.4284 3.88373 18.8959 3.33215C18.3635 2.78058 17.6413 2.4707 16.8883 2.4707ZM7.23696 15.2667C7.10386 15.4044 6.9234 15.4819 6.73523 15.4819C6.54706 15.4819 6.36659 15.4044 6.2335 15.2667L4.31972 13.285C4.18654 13.1471 4.11172 12.9599 4.11172 12.7648C4.11172 12.5697 4.18654 12.3826 4.31972 12.2446C4.45291 12.1066 4.63355 12.0291 4.8219 12.0291C5.01025 12.0291 5.19089 12.1066 5.32408 12.2446L7.23696 14.2271C7.36997 14.365 7.44469 14.552 7.44469 14.7469C7.44469 14.9418 7.36997 15.1288 7.23696 15.2667ZM17.8838 15.2667C17.7507 15.4044 17.5702 15.4819 17.3821 15.4819C17.1939 15.4819 17.0134 15.4044 16.8803 15.2667L14.9666 13.285C14.8334 13.1471 14.7586 12.9599 14.7586 12.7648C14.7586 12.5697 14.8334 12.3826 14.9666 12.2446C15.0998 12.1066 15.2804 12.0291 15.4688 12.0291C15.6571 12.0291 15.8377 12.1066 15.9709 12.2446L17.8838 14.2271C18.0168 14.365 18.0915 14.552 18.0915 14.7469C18.0915 14.9418 18.0168 15.1288 17.8838 15.2667Z" fill="#21212B"/>
</svg>
