<svg width="19" height="18" viewBox="0 0 19 18" fill="none" xmlns="http://www.w3.org/2000/svg">
<path d="M9.36487 0C6.882 0.00291069 4.50161 1.04658 2.74596 2.90202C0.990301 4.75746 0.00276463 7.27314 1.04699e-05 9.89713V15.029C-0.00130689 15.5019 0.121716 15.966 0.35536 16.3694C0.589003 16.7728 0.924083 17.0997 1.32323 17.3136C1.7237 17.5298 2.17314 17.6243 2.62143 17.5864C3.06973 17.5486 3.49926 17.3799 3.86215 17.0991C4.87321 16.322 6.64906 15.3955 9.36487 15.3955C12.0807 15.3955 13.8565 16.3211 14.8676 17.0982C15.2294 17.3781 15.6575 17.5467 16.1045 17.5852C16.5514 17.6238 16.9997 17.5307 17.3996 17.3164C17.7996 17.1021 18.1356 16.775 18.3704 16.3712C18.6051 15.9675 18.7295 15.5029 18.7297 15.029V9.89713C18.727 7.27314 17.7394 4.75746 15.9838 2.90202C14.2281 1.04658 11.8477 0.00291069 9.36487 0ZM16.4622 15.3561C16.4038 15.3885 16.3378 15.4026 16.2721 15.3967C16.2064 15.3909 16.1436 15.3654 16.0911 15.3231C14.8277 14.3518 12.64 13.1962 9.36487 13.1962C6.08977 13.1962 3.90203 14.3518 2.63865 15.3204C2.58616 15.3626 2.52336 15.3882 2.45763 15.394C2.39189 15.3998 2.32595 15.3857 2.26752 15.3534C2.2098 15.3245 2.16137 15.2784 2.12823 15.2208C2.09509 15.1631 2.0787 15.0964 2.08109 15.029V12.6592C4.22307 11.0986 6.76325 10.263 9.36487 10.263C11.9665 10.263 14.5067 11.0986 16.6486 12.6592V15.029C16.651 15.0964 16.6346 15.1631 16.6015 15.2208C16.5684 15.2784 16.5199 15.3245 16.4622 15.3534V15.3561Z" fill="#21212B"/>
</svg>
