<svg width="21" height="21" viewBox="0 0 21 21" fill="none" xmlns="http://www.w3.org/2000/svg">
<path d="M20.9124 13.5424C19.3891 10.9044 15.5315 4.22248 15.3726 3.94719C15.264 3.74469 15.0479 3.60212 14.7889 3.60212C14.7886 3.60212 14.7883 3.60212 14.788 3.60212H13.5445V2.22552C13.5445 1.86741 13.2517 1.57227 12.8908 1.57227H8.10908C7.74347 1.57227 7.45583 1.87053 7.45583 2.22552V3.60212H6.21195C6.21166 3.60212 6.21137 3.60212 6.21109 3.60212C5.96216 3.60212 5.75089 3.73329 5.63802 3.92873C5.52682 4.1213 1.60237 10.9191 0.0875888 13.5424C-0.0927155 13.8546 0.014253 14.2544 0.326709 14.4348L3.17401 16.0784C3.48663 16.2588 3.886 16.1516 4.0663 15.8393C5.22581 13.8311 4.81442 14.5437 5.55049 13.2687V16.7401C5.55049 17.0716 5.79765 17.3448 6.11761 17.3871V18.7746C6.11761 19.1353 6.41009 19.4278 6.77087 19.4278H14.2291C14.5898 19.4278 14.8823 19.1353 14.8823 18.7746V17.3872C15.2025 17.3451 15.4499 17.0718 15.4499 16.7402V13.2695C16.1495 14.4814 15.7424 13.7763 16.9336 15.8393C17.114 16.1518 17.5136 16.2587 17.8259 16.0784L20.6732 14.4348C20.9855 14.2546 21.0928 13.8548 20.9124 13.5424ZM3.26149 14.6203L1.54569 13.6299L1.84092 13.1187L3.55672 14.1091L3.26149 14.6203ZM11.6787 2.87873L10.5 4.6675L9.32166 2.87873H11.6787ZM11.1532 6.2039V16.087H9.8467V6.2039L10.1367 6.39791C10.3586 6.54585 10.6458 6.54339 10.8632 6.39791L11.1532 6.2039ZM13.5758 18.1213H7.42416V17.3934C7.52498 17.3934 13.5065 17.3934 13.5758 17.3934V18.1213ZM13.8032 8.413H12.8961C12.5353 8.413 12.2428 8.12052 12.2428 7.75975C12.2428 7.39897 12.5353 7.10649 12.8961 7.10649H13.8032C14.164 7.10649 14.4565 7.39897 14.4565 7.75975C14.4565 8.12052 14.164 8.413 13.8032 8.413ZM17.7385 14.6203L17.4432 14.1091L19.159 13.1187L19.4543 13.6299L17.7385 14.6203Z" fill="#21212B"/>
</svg>
