<svg width="21" height="21" viewBox="0 0 21 21" fill="none" xmlns="http://www.w3.org/2000/svg">
<g clip-path="url(#clip0_46_2153)">
<path d="M0.697266 6.80859C7.09939 6.80859 13.5015 6.80859 20.0977 6.80859C20.1919 7.46825 20.1919 7.46825 20.2207 7.77271C20.2258 7.82522 20.2258 7.82522 20.2311 7.8788C20.2423 7.99385 20.2533 8.10892 20.2643 8.22398C20.2724 8.30739 20.2805 8.39079 20.2886 8.47419C20.3104 8.69908 20.332 8.92398 20.3536 9.14888C20.3717 9.33715 20.3899 9.52542 20.4081 9.71368C20.451 10.1579 20.4937 10.6021 20.5364 11.0463C20.5803 11.5037 20.6244 11.9611 20.6687 12.4185C20.7069 12.8122 20.7448 13.206 20.7826 13.5998C20.8052 13.8345 20.8278 14.0692 20.8506 14.304C20.872 14.5246 20.8932 14.7452 20.9142 14.9658C20.9219 15.0465 20.9298 15.1272 20.9376 15.2079C21.0242 16.0952 21.0242 16.0952 21 16.3652C20.9127 16.4525 20.7283 16.4349 20.6075 16.447C20.5701 16.4509 20.5328 16.4548 20.4944 16.4588C20.3683 16.4719 20.2422 16.4847 20.1162 16.4975C20.0262 16.5068 19.9362 16.5161 19.8462 16.5254C19.6009 16.5507 19.3557 16.5758 19.1104 16.6009C18.854 16.6271 18.5977 16.6535 18.3413 16.6799C17.8828 16.727 17.4242 16.774 16.9657 16.8209C16.5502 16.8634 16.1347 16.906 15.7193 16.9488C15.1855 17.0038 14.6517 17.0586 14.1179 17.1133C13.9141 17.1342 13.7102 17.1551 13.5064 17.1762C13.2661 17.2009 13.0258 17.2255 12.7854 17.25C12.6972 17.259 12.6091 17.268 12.5209 17.2772C12.4005 17.2896 12.28 17.3019 12.1595 17.3141C12.1073 17.3195 12.1073 17.3195 12.0541 17.3251C11.8494 17.3456 11.6491 17.3529 11.4434 17.3496C11.3499 17.0019 11.2565 16.6543 11.1631 16.3066C11.1197 16.1451 11.0763 15.9836 11.0329 15.8221C10.9909 15.6657 10.9488 15.5093 10.9068 15.3529C10.8909 15.2938 10.875 15.2347 10.8592 15.1755C10.8516 15.1474 10.844 15.1192 10.8362 15.0902C10.8288 15.0625 10.8213 15.0348 10.8136 15.0062C10.799 14.9518 10.7844 14.8973 10.7698 14.8428C10.733 14.7048 10.6956 14.567 10.6575 14.4294C10.6499 14.4014 10.6422 14.3735 10.6344 14.3447C10.6133 14.2676 10.592 14.1907 10.5707 14.1137C10.541 13.9863 10.541 13.9863 10.541 13.8223C10.5139 13.8223 10.4869 13.8223 10.459 13.8223C10.4539 13.8699 10.4487 13.9174 10.4434 13.9665C10.4219 14.1375 10.3839 14.3019 10.3387 14.4681C10.3307 14.4979 10.3228 14.5278 10.3146 14.5585C10.2886 14.6561 10.2623 14.7536 10.236 14.851C10.2177 14.9192 10.1995 14.9874 10.1813 15.0556C10.1335 15.2344 10.0854 15.4131 10.0373 15.5917C9.99798 15.7379 9.95887 15.884 9.91977 16.0302C9.87313 16.2045 9.82641 16.3789 9.77966 16.5532C9.77075 16.5864 9.76184 16.6196 9.75266 16.6539C9.72747 16.7477 9.70223 16.8416 9.67696 16.9354C9.66951 16.9632 9.66205 16.991 9.65436 17.0197C9.62439 17.1308 9.59305 17.2404 9.55664 17.3496C9.02625 17.3237 8.49953 17.2762 7.97137 17.2218C7.88446 17.2129 7.79754 17.2041 7.71062 17.1953C7.47685 17.1715 7.24309 17.1476 7.00934 17.1236C6.81391 17.1035 6.61846 17.0836 6.42301 17.0636C5.96246 17.0166 5.50194 16.9695 5.04142 16.9222C4.56602 16.8734 4.0906 16.8249 3.61516 16.7765C3.20641 16.7349 2.79767 16.6931 2.38895 16.6512C2.14503 16.6262 1.9011 16.6013 1.65716 16.5764C1.42849 16.5532 1.19983 16.5297 0.971186 16.5061C0.887079 16.4975 0.802965 16.4889 0.718845 16.4804C0.604557 16.4688 0.490294 16.457 0.376035 16.4452C0.342318 16.4418 0.308602 16.4384 0.273863 16.435C0.0456974 16.4109 0.0456974 16.4109 0 16.3652C0 13.1712 0.451189 9.99311 0.697266 6.80859Z" fill="white" fill-opacity="0.35"/>
<path d="M0.943359 3.65039C7.16953 3.65039 13.3957 3.65039 19.8105 3.65039C19.9746 5.25 19.9746 5.25 19.9746 5.61914C13.6537 5.61914 7.33277 5.61914 0.820312 5.61914C0.820312 4.96161 0.89022 4.30577 0.943359 3.65039Z" fill="white" fill-opacity="0.35"/>
</g>
<defs>
<clipPath id="clip0_46_2153">
<rect width="21" height="21" fill="white"/>
</clipPath>
</defs>
</svg>
