<svg width="12" height="12" viewBox="0 0 12 12" fill="none" xmlns="http://www.w3.org/2000/svg">
<g clip-path="url(#clip0_46_1670)">
<path d="M0.398438 3.89062C4.0568 3.89062 7.71516 3.89062 11.4844 3.89062C11.5382 4.26757 11.5382 4.26757 11.5547 4.44155C11.5576 4.47156 11.5576 4.47156 11.5606 4.50217C11.567 4.56791 11.5733 4.63367 11.5796 4.69942C11.5842 4.74708 11.5888 4.79474 11.5935 4.8424C11.6059 4.9709 11.6183 5.09942 11.6307 5.22793C11.641 5.33552 11.6514 5.44309 11.6618 5.55067C11.6863 5.8045 11.7107 6.05833 11.7351 6.31217C11.7602 6.57355 11.7854 6.83491 11.8107 7.09628C11.8325 7.32128 11.8542 7.54629 11.8758 7.7713C11.8887 7.90544 11.9016 8.03957 11.9146 8.17369C11.9269 8.29974 11.939 8.42581 11.951 8.55188C11.9554 8.598 11.9599 8.64412 11.9644 8.69023C12.0138 9.19727 12.0138 9.19727 12 9.35156C11.9501 9.40144 11.8448 9.39136 11.7757 9.39828C11.7544 9.4005 11.733 9.40273 11.7111 9.40501C11.639 9.41249 11.567 9.41982 11.4949 9.42714C11.4435 9.43245 11.3921 9.43776 11.3407 9.44309C11.2005 9.45757 11.0604 9.47191 10.9202 9.48623C10.7737 9.50121 10.6272 9.5163 10.4808 9.53137C10.2187 9.5583 9.9567 9.58513 9.69466 9.61193C9.45725 9.6362 9.21985 9.66058 8.98246 9.68504C8.67745 9.71646 8.37243 9.74779 8.0674 9.77903C7.95091 9.79097 7.83443 9.80294 7.71795 9.81495C7.58062 9.8291 7.44329 9.84315 7.30595 9.85713C7.25557 9.86228 7.20519 9.86746 7.15482 9.87267C7.08598 9.87978 7.01712 9.88678 6.94826 9.89375C6.91847 9.89688 6.91847 9.89688 6.88807 9.90006C6.77107 9.91175 6.65665 9.91593 6.53906 9.91406C6.48567 9.71539 6.43228 9.51672 6.3789 9.31805C6.3541 9.22576 6.32931 9.13347 6.3045 9.04118C6.28049 8.95182 6.25648 8.86247 6.23247 8.77311C6.22339 8.73932 6.21431 8.70553 6.20523 8.67174C6.20091 8.65565 6.19658 8.63957 6.19213 8.623C6.18787 8.60716 6.18361 8.59132 6.17923 8.575C6.17087 8.54386 6.16252 8.51273 6.1542 8.48159C6.13312 8.40276 6.11178 8.32401 6.09003 8.24535C6.08566 8.22938 6.08128 8.21342 6.07678 8.19696C6.06472 8.15294 6.05255 8.10895 6.04038 8.06496C6.02344 7.99219 6.02344 7.99219 6.02344 7.89844C6.00797 7.89844 5.9925 7.89844 5.97656 7.89844C5.97363 7.92563 5.9707 7.95282 5.96768 7.98084C5.9554 8.07856 5.93366 8.17252 5.90781 8.26747C5.90327 8.28453 5.89873 8.30159 5.89406 8.31916C5.8792 8.37491 5.86416 8.4306 5.84912 8.4863C5.83869 8.52527 5.82827 8.56424 5.81786 8.60322C5.79055 8.70537 5.76308 8.80747 5.73559 8.90957C5.71313 8.99307 5.69078 9.07659 5.66844 9.16012C5.64179 9.25974 5.61509 9.35935 5.58838 9.45895C5.58329 9.47795 5.57819 9.49694 5.57295 9.51651C5.55855 9.57014 5.54413 9.62376 5.52969 9.67738C5.52543 9.69327 5.52117 9.70916 5.51678 9.72553C5.49965 9.78903 5.48174 9.85164 5.46094 9.91406C5.15786 9.89927 4.85687 9.87209 4.55507 9.841C4.5054 9.83595 4.45574 9.83091 4.40607 9.82587C4.27249 9.81229 4.13891 9.79861 4.00534 9.7849C3.89366 9.77345 3.78198 9.76205 3.67029 9.75065C3.40712 9.72379 3.14396 9.69685 2.88081 9.66985C2.60915 9.64197 2.33748 9.61424 2.06581 9.58657C1.83223 9.56278 1.59867 9.53891 1.36511 9.51497C1.22573 9.50069 1.08634 9.48643 0.946951 9.47225C0.816279 9.45896 0.685617 9.44556 0.554963 9.43209C0.506902 9.42715 0.458837 9.42224 0.410769 9.41738C0.345461 9.41076 0.280168 9.40401 0.214877 9.39724C0.19561 9.39531 0.176344 9.39339 0.156493 9.39141C0.0261128 9.37768 0.0261128 9.37768 0 9.35156C0 7.52641 0.257822 5.71035 0.398438 3.89062Z" fill="white"/>
<path d="M0.539062 2.08594C4.09688 2.08594 7.65469 2.08594 11.3203 2.08594C11.4141 3 11.4141 3 11.4141 3.21094C7.80211 3.21094 4.19016 3.21094 0.46875 3.21094C0.46875 2.83521 0.508697 2.46044 0.539062 2.08594Z" fill="white"/>
</g>
<defs>
<clipPath id="clip0_46_1670">
<rect width="12" height="12" fill="white"/>
</clipPath>
</defs>
</svg>
