<svg width="21" height="21" viewBox="0 0 21 21" fill="none" xmlns="http://www.w3.org/2000/svg">
<path d="M19.2094 1.35854C18.9997 1.22552 18.7578 1.14189 18.5051 1.11496C18.2523 1.08803 17.9962 1.11861 17.7591 1.20403C16.3861 1.69737 13.6137 2.52503 10.4997 2.52503C7.38575 2.52503 4.61235 1.69737 3.23739 1.20403C3.00016 1.119 2.74405 1.08865 2.49125 1.11558C2.23845 1.14252 1.99657 1.22594 1.78655 1.35863C1.57653 1.49131 1.4047 1.66926 1.28594 1.87707C1.16718 2.08487 1.10507 2.31627 1.10498 2.55123V7.59035C1.10498 10.8287 2.04935 13.8836 3.76487 16.1904C5.54204 18.5812 7.93378 19.8949 10.4997 19.8949C13.0657 19.8949 15.4574 18.5785 17.2346 16.1904C18.9501 13.8854 19.8945 10.8305 19.8945 7.59216V2.55123C19.894 2.31597 19.8314 2.08437 19.712 1.87652C19.5926 1.66868 19.4201 1.49087 19.2094 1.35854ZM5.60663 10.2613C5.46816 10.405 5.2735 10.4921 5.06547 10.5034C4.85744 10.5147 4.65309 10.4492 4.49736 10.3213C4.34163 10.1935 4.24729 10.0138 4.23509 9.82169C4.22288 9.62962 4.29382 9.44094 4.43228 9.29716C4.99499 8.72069 6.01569 8.33397 6.97669 8.33397C7.93769 8.33397 8.95839 8.72069 9.5211 9.29716C9.65957 9.44094 9.7305 9.62962 9.7183 9.82169C9.70609 10.0138 9.61175 10.1935 9.45602 10.3213C9.37891 10.3846 9.28905 10.4333 9.19158 10.4645C9.0941 10.4958 8.99092 10.509 8.88791 10.5034C8.67988 10.4921 8.48522 10.405 8.34676 10.2613C8.08449 9.99019 7.48068 9.77966 6.97669 9.77966C6.4727 9.77966 5.86498 9.99109 5.60663 10.2613ZM14.4621 14.5857C13.9762 15.118 13.3702 15.5459 12.6864 15.8395C12.0026 16.133 11.2577 16.2851 10.5036 16.2851C9.74957 16.2851 9.00462 16.133 8.32087 15.8395C7.63711 15.5459 7.03107 15.118 6.54512 14.5857C6.47097 14.5148 6.4133 14.4306 6.37566 14.3384C6.33802 14.2462 6.32121 14.1478 6.32625 14.0494C6.33129 13.9509 6.35809 13.8545 6.40499 13.7659C6.45189 13.6774 6.5179 13.5986 6.59897 13.5345C6.68004 13.4704 6.77446 13.4223 6.87641 13.3931C6.97837 13.3639 7.08571 13.3543 7.19185 13.3648C7.29798 13.3753 7.40066 13.4058 7.49359 13.4543C7.58651 13.5028 7.6677 13.5683 7.73218 13.6469C8.07103 14.0204 8.49444 14.3207 8.97259 14.5268C9.45075 14.7329 9.97202 14.8398 10.4997 14.8398C11.0274 14.8398 11.5487 14.7329 12.0268 14.5268C12.505 14.3207 12.9284 14.0204 13.2673 13.6469C13.4021 13.501 13.5941 13.4107 13.8012 13.3956C14.0082 13.3805 14.2132 13.442 14.3711 13.5665C14.5291 13.6909 14.627 13.8683 14.6433 14.0594C14.6596 14.2505 14.5931 14.4398 14.4582 14.5857H14.4621ZM16.5026 10.3218C16.4259 10.3851 16.3365 10.4339 16.2394 10.4653C16.1424 10.4967 16.0396 10.5102 15.9369 10.5049C15.8342 10.4996 15.7336 10.4757 15.6409 10.4345C15.5483 10.3933 15.4653 10.3357 15.3967 10.2649C15.1345 9.9938 14.5306 9.78327 14.0267 9.78327C13.5227 9.78327 12.9149 9.9947 12.6566 10.2649C12.5878 10.3363 12.5044 10.3945 12.4112 10.4362C12.318 10.4779 12.2168 10.5022 12.1135 10.5078C12.0101 10.5134 11.9066 10.5001 11.8088 10.4687C11.7109 10.4373 11.6208 10.3885 11.5434 10.325C11.466 10.2614 11.403 10.1844 11.3579 10.0984C11.3127 10.0123 11.2864 9.91894 11.2803 9.8235C11.2743 9.72806 11.2887 9.63246 11.3226 9.54215C11.3566 9.45184 11.4095 9.36859 11.4783 9.29716C12.0371 8.72069 13.0578 8.33397 14.0227 8.33397C14.9877 8.33397 16.0044 8.72069 16.5672 9.29716C16.6362 9.36818 16.6893 9.45111 16.7234 9.54117C16.7575 9.63124 16.772 9.72664 16.766 9.8219C16.76 9.91715 16.7336 10.0104 16.6884 10.0962C16.6432 10.182 16.58 10.2586 16.5026 10.3218Z" fill="#21212B"/>
</svg>
