<svg width="21" height="21" viewBox="0 0 21 21" fill="none" xmlns="http://www.w3.org/2000/svg">
<path d="M4.38396 3.56836L4.43974 3.11719C4.47971 2.79994 4.63412 2.50819 4.87398 2.29673C5.11384 2.08527 5.42264 1.96864 5.7424 1.96875H15.258C15.5778 1.96864 15.8866 2.08527 16.1264 2.29673C16.3663 2.50819 16.5207 2.79994 16.5607 3.11719L16.6165 3.56754C16.6223 3.61394 16.6182 3.66106 16.6043 3.70573C16.5905 3.75041 16.5672 3.7916 16.5362 3.82656C16.5051 3.86152 16.4669 3.88943 16.4242 3.90842C16.3814 3.92741 16.3351 3.93705 16.2883 3.93668H4.70963C4.66314 3.93668 4.61719 3.92681 4.57481 3.90771C4.53243 3.88861 4.49459 3.86073 4.4638 3.8259C4.43301 3.79108 4.40997 3.75011 4.3962 3.70571C4.38244 3.66131 4.37827 3.61449 4.38396 3.56836ZM13.8635 5.25C14.0098 5.81327 14.3388 6.31211 14.799 6.66837C15.2592 7.02463 15.8245 7.2182 16.4065 7.21875H16.701C16.7477 7.21912 16.794 7.20948 16.8368 7.19049C16.8795 7.1715 16.9177 7.14359 16.9488 7.10863C16.9798 7.07367 17.0031 7.03248 17.0169 6.9878C17.0308 6.94313 17.0349 6.89601 17.0291 6.84961L16.865 5.53711C16.855 5.45737 16.816 5.3841 16.7555 5.33118C16.6951 5.27825 16.6173 5.24937 16.5369 5.25H13.8635ZM4.29947 7.21875H4.59396C5.17593 7.2182 5.74127 7.02463 6.20144 6.66837C6.66162 6.31211 6.99062 5.81327 7.13693 5.25H4.46353C4.38317 5.24937 4.30537 5.27825 4.24489 5.33118C4.18441 5.3841 4.14545 5.45737 4.13541 5.53711L3.97134 6.84961C3.9655 6.89601 3.96964 6.94313 3.98349 6.9878C3.99734 7.03248 4.02058 7.07367 4.05165 7.10863C4.08272 7.14359 4.12091 7.1715 4.16365 7.19049C4.20639 7.20948 4.2527 7.21912 4.29947 7.21875ZM18.3654 17.5547L17.2727 8.81836C17.2627 8.73862 17.2237 8.66535 17.1632 8.61243C17.1027 8.5595 17.0249 8.53062 16.9446 8.53125H16.4065C15.4764 8.52994 14.5767 8.19991 13.8664 7.59948C13.1561 6.99906 12.6809 6.16688 12.5247 5.25H11.1565V8.5091C11.1585 8.67841 11.0966 8.84224 10.9829 8.96775C10.8693 9.09327 10.7124 9.17118 10.5437 9.18586C10.4539 9.19182 10.3639 9.17926 10.2792 9.14896C10.1945 9.11866 10.1169 9.07127 10.0513 9.00972C9.98566 8.94818 9.9334 8.8738 9.89773 8.79121C9.86207 8.70862 9.84376 8.61957 9.84396 8.52961V5.25H8.47568C8.31954 6.16688 7.84433 6.99906 7.13403 7.59948C6.42372 8.19991 5.52404 8.52994 4.59396 8.53125H4.05338C3.97301 8.53062 3.89521 8.5595 3.83473 8.61243C3.77425 8.66535 3.73529 8.73862 3.72525 8.81836L2.63506 17.5547C2.60556 17.7916 2.64123 18.032 2.73822 18.2501C2.83521 18.4682 2.98985 18.6558 3.18549 18.7925C3.41607 18.951 3.68995 19.0343 3.9697 19.0312H7.27556C7.56745 19.0313 7.85102 18.9341 8.08144 18.7549C8.31187 18.5757 8.47599 18.3248 8.54787 18.042L10.5002 10.4951L12.4517 18.037C12.5227 18.321 12.6866 18.5731 12.9172 18.7532C13.1479 18.9333 13.4322 19.0312 13.7249 19.0312H17.0307C17.3103 19.0349 17.5842 18.9521 17.8149 18.7942C18.0108 18.6573 18.1657 18.4695 18.2627 18.251C18.3597 18.0326 18.3952 17.7918 18.3654 17.5547Z" fill="#21212B"/>
</svg>
