<svg width="14" height="14" viewBox="0 0 14 14" fill="none" xmlns="http://www.w3.org/2000/svg">
<g clip-path="url(#clip0_46_1863)">
<path d="M10.3289 3.55469C10.1983 3.32806 9.98311 3.16257 9.73056 3.09463C9.47801 3.02668 9.20881 3.06185 8.98218 3.19238C8.75556 3.32292 8.59007 3.53814 8.52213 3.79069C8.45418 4.04324 8.48934 4.31244 8.61988 4.53906L7.29316 2.24219C7.16262 2.01578 6.94749 1.8505 6.6951 1.78271C6.4427 1.71492 6.17371 1.75017 5.9473 1.8807C5.72089 2.01124 5.55561 2.22637 5.48782 2.47877C5.42003 2.73116 5.45528 3.00015 5.58582 3.22656L5.27191 2.67969C5.14138 2.45328 4.92624 2.288 4.67385 2.22021C4.42145 2.15242 4.15246 2.18767 3.92605 2.3182C3.69964 2.44874 3.53436 2.66387 3.46657 2.91627C3.39878 3.16866 3.43403 3.43765 3.56457 3.66406L3.74722 3.97961C3.47649 3.91244 3.19199 3.9264 2.92912 4.01972C2.66626 4.11305 2.43666 4.28163 2.26889 4.50448C2.10113 4.72733 2.00262 4.9946 1.98562 5.27302C1.96863 5.55144 2.0339 5.82871 2.17332 6.07031L2.33738 6.35469C2.10482 6.3842 1.88315 6.47075 1.69213 6.60664C1.50111 6.74254 1.34665 6.92355 1.2425 7.13358C1.13835 7.3436 1.08775 7.57612 1.0952 7.81043C1.10265 8.04474 1.16792 8.27358 1.28519 8.47656L3.21402 11.8125C3.6955 12.6454 4.43766 13.2968 5.32601 13.666C6.21437 14.0353 7.19955 14.1021 8.12959 13.8559C9.05963 13.6098 9.88284 13.0645 10.4722 12.3041C11.0616 11.5437 11.3844 10.6106 11.3909 9.64852C11.7808 9.04058 11.9958 8.33701 12.0123 7.61496C12.0288 6.89292 11.8462 6.18027 11.4844 5.55516L10.3289 3.55469ZM10.3945 10.5306C10.2144 11.1998 9.84007 11.8005 9.31878 12.2571C8.7975 12.7137 8.15263 13.0055 7.46559 13.0959C6.77855 13.1862 6.08014 13.071 5.45855 12.7647C4.83696 12.4584 4.32005 11.9748 3.97308 11.375L2.04425 8.03906C2.00835 7.9768 1.98505 7.90807 1.97571 7.8368C1.96636 7.76554 1.97114 7.69313 1.98978 7.62371C2.00841 7.55429 2.04054 7.48922 2.08433 7.43222C2.12811 7.37521 2.18269 7.32739 2.24496 7.29148C2.37071 7.21896 2.52012 7.19937 2.66031 7.23701C2.72973 7.25564 2.7948 7.28777 2.8518 7.33156C2.90881 7.37534 2.95663 7.42992 2.99254 7.49219L4.1016 9.40625C4.15961 9.50683 4.25521 9.58025 4.36736 9.61036C4.47951 9.64046 4.59902 9.62477 4.69961 9.56676C4.80019 9.50874 4.87361 9.41315 4.90371 9.301C4.93381 9.18885 4.91813 9.06933 4.86011 8.96875L2.93238 5.63281C2.85986 5.50677 2.84038 5.35709 2.87822 5.21668C2.91607 5.07628 3.00814 4.95666 3.13418 4.88414C3.26022 4.81162 3.4099 4.79214 3.55031 4.82998C3.69071 4.86783 3.81033 4.9599 3.88285 5.08594L5.62246 8.09375C5.68047 8.19433 5.77607 8.26775 5.88822 8.29786C6.00037 8.32796 6.11988 8.31227 6.22047 8.25426C6.32105 8.19624 6.39447 8.10065 6.42457 7.9885C6.45467 7.87635 6.43899 7.75684 6.38097 7.65625L4.9591 5.19531C4.88658 5.06949 4.86701 4.92001 4.9047 4.77976C4.94239 4.63951 5.03425 4.51998 5.16008 4.44746C5.2859 4.37494 5.43538 4.35537 5.57562 4.39306C5.71587 4.43075 5.83541 4.52261 5.90793 4.64844L7.90402 8.09375C7.96204 8.19433 8.05763 8.26775 8.16978 8.29786C8.28193 8.32796 8.40144 8.31227 8.50203 8.25426C8.60261 8.19624 8.67603 8.10065 8.70613 7.9885C8.73624 7.87635 8.72055 7.75684 8.66254 7.65625L7.97347 6.4668C7.92128 6.34069 7.91812 6.19962 7.96462 6.07131C8.01113 5.94299 8.10393 5.8367 8.2248 5.77332C8.34568 5.70993 8.48588 5.69404 8.61788 5.72876C8.74987 5.76347 8.86411 5.84629 8.93816 5.96094L10.0439 7.875C10.2753 8.27249 10.4254 8.71197 10.4856 9.16793C10.5458 9.62389 10.5148 10.0873 10.3945 10.5312V10.5306ZM8.76207 1.3125V0.4375C8.76207 0.321468 8.80816 0.210188 8.89021 0.128141C8.97226 0.0460936 9.08354 0 9.19957 0C9.3156 0 9.42688 0.0460936 9.50893 0.128141C9.59097 0.210188 9.63707 0.321468 9.63707 0.4375V1.3125C9.63707 1.42853 9.59097 1.53981 9.50893 1.62186C9.42688 1.70391 9.3156 1.75 9.19957 1.75C9.08354 1.75 8.97226 1.70391 8.89021 1.62186C8.80816 1.53981 8.76207 1.42853 8.76207 1.3125ZM10.5788 1.64062L11.0163 0.924219C11.0462 0.875096 11.0855 0.832346 11.1319 0.798409C11.1784 0.764473 11.231 0.740014 11.2869 0.72643C11.3428 0.712846 11.4008 0.710402 11.4576 0.719238C11.5145 0.728075 11.569 0.748018 11.6181 0.77793C11.6672 0.807841 11.71 0.847135 11.7439 0.893569C11.7779 0.940002 11.8023 0.992665 11.8159 1.04855C11.8295 1.10444 11.8319 1.16245 11.8231 1.21928C11.8143 1.27611 11.7943 1.33064 11.7644 1.37977L11.3269 2.09672C11.2878 2.16079 11.2328 2.21372 11.1673 2.2504C11.1018 2.28709 11.0279 2.30629 10.9528 2.30617C10.8751 2.3063 10.7987 2.28569 10.7315 2.24646C10.6644 2.20724 10.6089 2.15083 10.5708 2.08303C10.5327 2.01523 10.5133 1.9385 10.5147 1.86074C10.5161 1.78298 10.5382 1.707 10.5788 1.64062ZM13.0397 3.48141L12.2167 3.74664C12.1732 3.7606 12.1278 3.76779 12.0821 3.76797C11.9777 3.76828 11.8766 3.7312 11.7971 3.66345C11.7176 3.59569 11.6649 3.50172 11.6487 3.39853C11.6324 3.29535 11.6536 3.18975 11.7085 3.10084C11.7633 3.01192 11.8481 2.94556 11.9476 2.91375L12.7712 2.64852C12.8817 2.61291 13.0017 2.62263 13.105 2.67555C13.2083 2.72848 13.2863 2.82026 13.3219 2.9307C13.3575 3.04115 13.3478 3.16122 13.2949 3.2645C13.242 3.36777 13.1502 3.4458 13.0397 3.48141Z" fill="white"/>
</g>
<defs>
<clipPath id="clip0_46_1863">
<rect width="14" height="14" fill="white"/>
</clipPath>
</defs>
</svg>
