<svg width="21" height="21" viewBox="0 0 21 21" fill="none" xmlns="http://www.w3.org/2000/svg">
<path d="M19.2776 4.91432L15.4783 2.68826C15.3922 2.63707 15.2955 2.60995 15.1972 2.60938H12.8483C12.6926 2.60938 12.5432 2.67586 12.4331 2.79421C12.3229 2.91256 12.2611 3.07307 12.2611 3.24044C12.2611 3.74254 12.0755 4.22408 11.7451 4.57912C11.4147 4.93416 10.9666 5.13362 10.4994 5.13362C10.0322 5.13362 9.58413 4.93416 9.25376 4.57912C8.92338 4.22408 8.73778 3.74254 8.73778 3.24044C8.73778 3.07307 8.67592 2.91256 8.56579 2.79421C8.45567 2.67586 8.30631 2.60938 8.15057 2.60938H5.8017C5.70308 2.60981 5.60614 2.63694 5.51984 2.68826L1.72129 4.91432C1.45051 5.06811 1.24753 5.33101 1.15685 5.64539C1.06617 5.95977 1.0952 6.29996 1.23757 6.59137L2.65202 9.49504C2.75487 9.7038 2.90903 9.87824 3.09773 9.99939C3.28643 10.1205 3.50243 10.1837 3.72222 10.1821H5.21449V16.4927C5.21449 16.8274 5.33822 17.1485 5.55847 17.3852C5.77872 17.6219 6.07744 17.7548 6.38892 17.7548H14.6099C14.9214 17.7548 15.2201 17.6219 15.4404 17.3852C15.6606 17.1485 15.7844 16.8274 15.7844 16.4927V10.1821H17.2774C17.4972 10.1837 17.7132 10.1205 17.9019 9.99939C18.0906 9.87824 18.2447 9.7038 18.3476 9.49504L19.762 6.59137C19.9043 6.29986 19.9333 5.9596 19.8424 5.64521C19.7516 5.33082 19.5485 5.06797 19.2776 4.91432Z" fill="#21212B"/>
</svg>
