<svg width="21" height="21" viewBox="0 0 21 21" fill="none" xmlns="http://www.w3.org/2000/svg">
<path d="M17.5519 10.5102L15.3199 9.74322C15.2521 9.71891 15.1784 9.71891 15.1107 9.74322L11.6719 11.0328C11.6024 11.0597 11.529 11.0741 11.4548 11.0754C11.3154 11.0753 11.18 11.0281 11.0692 10.941C10.9584 10.8538 10.8784 10.7316 10.8415 10.5931C10.8013 10.4306 10.8217 10.2585 10.8985 10.1107C10.9754 9.96293 11.1032 9.85026 11.2567 9.7949L12.7275 9.24365C12.767 9.22897 12.8011 9.20195 12.825 9.16635C12.849 9.13075 12.8616 9.08834 12.861 9.04503C12.8605 9.00171 12.8469 8.95964 12.8221 8.92467C12.7973 8.8897 12.7626 8.86356 12.7227 8.8499C12.462 8.76016 12.2232 8.61323 12.0227 8.41924C11.9799 8.37577 11.926 8.34569 11.8673 8.33248C11.8086 8.31927 11.7475 8.32347 11.691 8.34459L9.76443 9.06647C9.68191 9.09734 9.5941 9.11028 9.5065 9.10447C9.41891 9.09866 9.33342 9.07422 9.25543 9.03269C9.17743 8.99117 9.10861 8.93345 9.05329 8.86317C8.99797 8.79289 8.95734 8.71157 8.93397 8.62432C8.89381 8.46183 8.91417 8.28971 8.99104 8.14195C9.06792 7.99418 9.19571 7.88151 9.3492 7.82615L10.9775 7.2142C11.0182 7.19895 11.0555 7.17529 11.0871 7.14465C11.1186 7.11401 11.1438 7.07705 11.161 7.03604C11.1782 6.99502 11.1871 6.95082 11.1871 6.90613C11.1872 6.86144 11.1784 6.81721 11.1612 6.77615L10.9178 6.18881C10.8859 6.11153 10.8264 6.04982 10.7517 6.0164C10.677 5.98298 10.5927 5.98039 10.5161 6.00916L8.48772 6.76959C8.40521 6.80047 8.31739 6.81341 8.2298 6.8076C8.1422 6.80178 8.05672 6.77735 7.97872 6.73582C7.90073 6.69429 7.83191 6.63658 7.77659 6.5663C7.72126 6.49602 7.68064 6.4147 7.65727 6.32744C7.61711 6.16495 7.63747 5.99284 7.71434 5.84507C7.79121 5.69731 7.919 5.58463 8.07249 5.52928L9.98159 4.81315C10.0222 4.79789 10.0594 4.77425 10.0909 4.74367C10.1224 4.71309 10.1475 4.67622 10.1647 4.6353C10.1819 4.59438 10.1908 4.55028 10.1909 4.50568C10.191 4.46108 10.1823 4.41693 10.1653 4.37592L9.73579 3.33166C9.73579 3.33166 9.73579 3.32592 9.73579 3.32346C9.60432 3.01936 9.36569 2.77816 9.06824 2.64869C8.77078 2.51923 8.43673 2.51119 8.13374 2.62619L2.11056 4.88123C1.86535 4.97385 1.65357 5.14179 1.5038 5.3624C1.35402 5.58301 1.27345 5.84568 1.27295 6.11498V15.6692C1.27295 16.0173 1.40704 16.3511 1.64572 16.5972C1.88441 16.8434 2.20813 16.9817 2.54568 16.9817H18.4548C18.7923 16.9817 19.116 16.8434 19.3547 16.5972C19.5934 16.3511 19.7275 16.0173 19.7275 15.6692V13.6233C19.7275 12.9346 19.5175 12.2633 19.127 11.7046C18.7365 11.1459 18.1855 10.728 17.5519 10.5102ZM18.4548 15.6692H2.54568V14.3567H18.4548V15.6692Z" fill="#21212B"/>
</svg>
