<svg width="14" height="14" viewBox="0 0 14 14" fill="none" xmlns="http://www.w3.org/2000/svg">
<path d="M12.8519 3.27589L10.319 1.79185C10.2616 1.75772 10.1972 1.73964 10.1316 1.73926H8.56569C8.46186 1.73926 8.36229 1.78358 8.28887 1.86248C8.21546 1.94138 8.17421 2.04839 8.17421 2.15996C8.17421 2.4947 8.05048 2.81573 7.83023 3.05242C7.60998 3.28911 7.31126 3.42209 6.99978 3.42209C6.6883 3.42209 6.38958 3.28911 6.16933 3.05242C5.94909 2.81573 5.82535 2.4947 5.82535 2.15996C5.82535 2.04839 5.78411 1.94138 5.71069 1.86248C5.63727 1.78358 5.5377 1.73926 5.43387 1.73926H3.86796C3.80221 1.73955 3.73759 1.75764 3.68006 1.79185L1.14769 3.27589C0.967168 3.37841 0.831846 3.55368 0.771395 3.76327C0.710943 3.97285 0.730295 4.19965 0.825208 4.39392L1.76818 6.3297C1.83674 6.46887 1.93952 6.58517 2.06532 6.66593C2.19111 6.74669 2.33511 6.78883 2.48165 6.78774H3.47649V10.9948C3.47649 11.218 3.55898 11.432 3.70581 11.5898C3.85264 11.7476 4.05179 11.8362 4.25944 11.8362H9.74012C9.94777 11.8362 10.1469 11.7476 10.2938 11.5898C10.4406 11.432 10.5231 11.218 10.5231 10.9948V6.78774H11.5184C11.6649 6.78883 11.8089 6.74669 11.9347 6.66593C12.0605 6.58517 12.1633 6.46887 12.2319 6.3297L13.1748 4.39392C13.2697 4.19958 13.289 3.97274 13.2285 3.76314C13.1679 3.55355 13.0325 3.37832 12.8519 3.27589Z" fill="white"/>
</svg>
