<svg width="16" height="16" viewBox="0 0 16 16" fill="none" xmlns="http://www.w3.org/2000/svg">
<path d="M11.7501 7.50009L8.00009 5.00009L11.4726 2.68759C11.5548 2.63277 11.6513 2.60352 11.7501 2.60352C11.8489 2.60352 11.9454 2.63277 12.0276 2.68759L14.8751 4.58384C14.9437 4.62948 14.9999 4.69136 15.0388 4.76398C15.0777 4.8366 15.0981 4.91771 15.0981 5.00009C15.0981 5.08247 15.0777 5.16358 15.0388 5.2362C14.9999 5.30882 14.9437 5.3707 14.8751 5.41634L11.7501 7.50009ZM4.52759 2.68759C4.44542 2.63277 4.34886 2.60352 4.25009 2.60352C4.15131 2.60352 4.05475 2.63277 3.97259 2.68759L1.12509 4.58384C1.0565 4.62948 1.00026 4.69136 0.961358 4.76398C0.922456 4.8366 0.9021 4.91771 0.9021 5.00009C0.9021 5.08247 0.922456 5.16358 0.961358 5.2362C1.00026 5.30882 1.0565 5.3707 1.12509 5.41634L4.25009 7.50009L8.00009 5.00009L4.52759 2.68759ZM14.8751 9.58384L11.7501 7.50009L8.00009 10.0001L11.4726 12.3126C11.5548 12.3674 11.6513 12.3967 11.7501 12.3967C11.8489 12.3967 11.9454 12.3674 12.0276 12.3126L14.8751 10.4163C14.9437 10.3707 14.9999 10.3088 15.0388 10.2362C15.0777 10.1636 15.0981 10.0825 15.0981 10.0001C15.0981 9.91771 15.0777 9.8366 15.0388 9.76398C14.9999 9.69136 14.9437 9.62948 14.8751 9.58384ZM1.12509 9.58384C1.0565 9.62948 1.00026 9.69136 0.961358 9.76398C0.922456 9.8366 0.9021 9.91771 0.9021 10.0001C0.9021 10.0825 0.922456 10.1636 0.961358 10.2362C1.00026 10.3088 1.0565 10.3707 1.12509 10.4163L3.97259 12.3126C4.05475 12.3674 4.15131 12.3967 4.25009 12.3967C4.34886 12.3967 4.44542 12.3674 4.52759 12.3126L8.00009 10.0001L4.25009 7.50009L1.12509 9.58384ZM10.5382 12.8932L8.14009 11.2945C8.09901 11.2671 8.05072 11.2524 8.00134 11.2524C7.95195 11.2524 7.90367 11.2671 7.86259 11.2945L5.46321 12.8932C5.42905 12.9161 5.40105 12.947 5.38168 12.9832C5.36232 13.0195 5.35219 13.0599 5.35219 13.101C5.35219 13.1421 5.36232 13.1826 5.38168 13.2188C5.40105 13.2551 5.42905 13.286 5.46321 13.3088L7.72259 14.8126C7.80475 14.8674 7.90131 14.8967 8.00009 14.8967C8.09886 14.8967 8.19542 14.8674 8.27759 14.8126L10.537 13.3063C10.5706 13.2834 10.5981 13.2526 10.6172 13.2166C10.6362 13.1806 10.6461 13.1405 10.6461 13.0998C10.6461 13.0591 10.6362 13.019 10.6172 12.983C10.5981 12.947 10.5706 12.9162 10.537 12.8932H10.5382Z" fill="white"/>
</svg>
