<svg width="21" height="21" viewBox="0 0 21 21" fill="none" xmlns="http://www.w3.org/2000/svg">
<path d="M14.3803 5.21145L13.8684 2.39121C13.8136 2.08864 13.6543 1.8149 13.4184 1.61776C13.1824 1.42062 12.8847 1.31258 12.5772 1.3125H8.42315C8.11566 1.31258 7.81796 1.42062 7.58199 1.61776C7.34602 1.8149 7.18675 2.08864 7.13198 2.39121L6.6201 5.21145C5.78875 5.82007 5.11259 6.61612 4.6465 7.53499C4.1804 8.45386 3.9375 9.46967 3.9375 10.5C3.9375 11.5303 4.1804 12.5461 4.6465 13.465C5.11259 14.3839 5.78875 15.1799 6.6201 15.7886L7.13198 18.6088C7.18675 18.9114 7.34602 19.1851 7.58199 19.3822C7.81796 19.5794 8.11566 19.6874 8.42315 19.6875H12.5772C12.8847 19.6874 13.1824 19.5794 13.4184 19.3822C13.6543 19.1851 13.8136 18.9114 13.8684 18.6088L14.3803 15.7886C15.2116 15.1799 15.8878 14.3839 16.3539 13.465C16.82 12.5461 17.0629 11.5303 17.0629 10.5C17.0629 9.46967 16.82 8.45386 16.3539 7.53499C15.8878 6.61612 15.2116 5.82007 14.3803 5.21145ZM8.42315 2.625H12.5772L12.898 4.39277C11.3571 3.78576 9.6433 3.78576 8.10241 4.39277L8.42315 2.625ZM12.5772 18.375H8.42315L8.10241 16.6072C9.6433 17.2142 11.3571 17.2142 12.898 16.6072L12.5772 18.375ZM13.7814 11.1562H10.5002C10.3261 11.1562 10.1592 11.0871 10.0361 10.964C9.91307 10.841 9.84393 10.674 9.84393 10.5V7.21875C9.84393 7.0447 9.91307 6.87778 10.0361 6.75471C10.1592 6.63164 10.3261 6.5625 10.5002 6.5625C10.6742 6.5625 10.8412 6.63164 10.9642 6.75471C11.0873 6.87778 11.1564 7.0447 11.1564 7.21875V9.84375H13.7814C13.9555 9.84375 14.1224 9.91289 14.2455 10.036C14.3685 10.159 14.4377 10.326 14.4377 10.5C14.4377 10.674 14.3685 10.841 14.2455 10.964C14.1224 11.0871 13.9555 11.1562 13.7814 11.1562Z" fill="#21212B"/>
</svg>
