<svg width="14" height="14" viewBox="0 0 14 14" fill="none" xmlns="http://www.w3.org/2000/svg">
<path d="M12.5188 11.7268L11.4876 5.1208C11.4356 4.78765 11.1143 4.51666 10.7713 4.51666H9.42954C9.46636 4.35181 9.48635 4.18082 9.48635 4.00526C9.48635 2.69063 8.398 1.62109 7.06024 1.62109C5.72248 1.62109 4.63413 2.69063 4.63413 4.00526C4.63413 4.18082 4.65411 4.35181 4.69093 4.51666H3.22861C2.88564 4.51666 2.56433 4.78768 2.51232 5.1208L1.48114 11.7268C1.45441 11.8982 1.49958 12.0611 1.60842 12.1858C1.71724 12.3104 1.87435 12.379 2.05077 12.379H11.9491C12.1256 12.379 12.2827 12.3104 12.3915 12.1858C12.5003 12.0611 12.5455 11.8982 12.5188 11.7268ZM7.06024 2.57159C7.86467 2.57159 8.51913 3.21473 8.51913 4.00526C8.51913 4.79579 7.86467 5.43893 7.06024 5.43893C6.2558 5.43893 5.60134 4.79579 5.60134 4.00526C5.60134 3.21473 6.2558 2.57159 7.06024 2.57159Z" fill="white" fill-opacity="0.35"/>
</svg>
